<?xml version="1.0" standalone="no"?>
<!DOCTYPE svg PUBLIC "-//W3C//DTD SVG 20010904//EN"
 "http://www.w3.org/TR/2001/REC-SVG-20010904/DTD/svg10.dtd">
<svg version="1.0" xmlns="http://www.w3.org/2000/svg"
 width="1024.000000pt" height="1024.000000pt" viewBox="0 0 1024.000000 1024.000000"
 preserveAspectRatio="xMidYMid meet">

<g transform="translate(0.000000,1024.000000) scale(0.100000,-0.100000)"
fill="#000000" stroke="none">
<path d="M2711 8542 c-30 -65 -34 -229 -10 -382 12 -73 65 -218 111 -300 76
-137 211 -287 312 -349 l56 -33 41 37 c95 85 247 167 381 205 159 45 420 45
603 -2 210 -52 446 -205 599 -388 83 -100 117 -152 162 -255 l30 -70 64 0 63
0 39 84 c70 150 175 282 321 404 245 204 553 295 877 258 212 -25 434 -126
559 -254 l44 -46 57 39 c32 22 81 65 110 97 73 82 233 325 269 408 66 155 94
330 72 447 -12 65 -30 118 -39 118 -2 0 -37 -31 -77 -69 -215 -204 -480 -302
-1030 -381 -529 -76 -910 -228 -1138 -454 -41 -41 -83 -88 -93 -105 -10 -17
-21 -31 -24 -31 -3 0 -25 25 -50 56 -222 278 -587 442 -1170 525 -304 43 -505
91 -700 167 -156 61 -252 122 -347 217 -81 82 -81 82 -92 57z"/>
<path d="M4930 8149 c-209 -13 -420 -48 -420 -70 0 -4 18 -10 39 -14 46 -8
239 -103 324 -159 31 -21 90 -69 130 -106 l74 -69 64 65 c35 36 100 89 144
119 85 57 297 165 324 165 9 0 22 4 30 9 25 16 -157 50 -324 61 -176 11 -189
11 -385 -1z"/>
<path d="M8682 7873 c-44 -87 -98 -189 -122 -228 -123 -201 -324 -428 -511
-577 -175 -139 -495 -336 -647 -397 l-79 -32 -6 -60 c-4 -32 -18 -104 -32
-158 -14 -55 -25 -104 -25 -109 0 -18 157 16 320 71 544 182 909 419 1145 742
145 200 176 285 175 485 0 70 -7 156 -15 195 -18 83 -83 219 -107 223 -13 3
-36 -33 -96 -155z"/>
<path d="M1366 8004 c-119 -118 -149 -500 -57 -710 30 -67 123 -202 200 -289
151 -172 325 -298 595 -431 212 -105 316 -145 486 -190 74 -20 164 -44 199
-55 35 -11 65 -18 67 -16 1 1 -6 52 -16 112 -11 61 -20 133 -20 160 0 28 -4
55 -8 60 -4 6 -34 19 -67 29 -129 39 -424 210 -605 352 -155 120 -239 202
-345 334 -162 203 -237 327 -359 598 -29 64 -43 73 -70 46z"/>
<path d="M6145 7578 c-177 -13 -393 -98 -520 -205 -38 -32 -96 -92 -128 -133
-99 -129 -139 -222 -183 -428 -4 -18 -9 -22 -22 -17 -55 22 -174 45 -231 45
-67 0 -178 -23 -196 -41 -19 -19 -33 -7 -39 36 -9 71 -82 246 -135 328 -53 80
-165 198 -233 245 -56 38 -156 88 -238 119 -245 93 -560 63 -797 -75 -85 -50
-200 -155 -258 -237 -43 -60 -105 -184 -105 -210 0 -10 -26 -12 -122 -8 -113
4 -128 7 -188 36 -55 27 -70 41 -97 87 -18 30 -33 64 -33 77 0 20 3 21 26 13
68 -26 144 1 185 66 44 73 -3 168 -96 194 -72 20 -156 -10 -213 -75 -51 -57
-65 -100 -66 -195 -1 -74 3 -93 26 -141 71 -143 242 -244 449 -265 l66 -6 6
-147 c7 -163 20 -226 76 -352 118 -267 344 -460 611 -521 72 -16 127 -21 225
-21 156 0 243 18 371 74 159 70 267 159 375 310 77 107 110 181 177 397 5 17
29 33 87 59 110 49 181 51 280 6 39 -17 78 -34 88 -37 9 -3 17 -15 17 -27 0
-38 41 -181 70 -245 62 -137 174 -280 289 -368 226 -174 574 -221 860 -117
173 63 288 147 399 291 137 178 190 326 199 558 6 150 -4 135 108 147 68 7
203 59 276 105 121 78 194 250 160 376 -26 96 -106 174 -200 196 -62 14 -97 1
-145 -53 -46 -50 -54 -94 -27 -147 29 -57 67 -74 148 -70 l64 3 -6 -35 c-12
-62 -67 -118 -160 -159 -16 -8 -83 -16 -148 -20 l-117 -6 -15 45 c-26 78 -103
199 -173 269 -117 119 -305 226 -458 262 -78 18 -192 25 -289 17z m-2021 -133
c111 -32 193 -70 207 -97 6 -11 8 -22 5 -25 -2 -3 -59 13 -125 36 -215 72
-391 75 -579 10 -120 -42 -152 -63 -267 -173 -55 -53 -103 -96 -107 -96 -17 0
-6 39 20 76 46 62 162 162 162 139 0 -4 11 6 24 22 43 51 194 111 331 133 94
14 229 4 329 -25z m2284 10 c139 -36 311 -132 388 -217 36 -40 70 -105 60
-116 -3 -2 -43 31 -88 76 -97 94 -160 133 -278 173 -178 59 -373 57 -548 -7
-118 -43 -127 -45 -127 -19 0 41 149 105 295 125 83 11 225 4 298 -15z m-1978
-170 l34 -35 -26 0 c-26 0 -88 43 -88 61 0 22 49 6 80 -26z m1329 10 c2 -13
-22 -42 -74 -92 -42 -40 -80 -73 -85 -73 -9 0 1 45 19 78 15 28 113 113 126
109 5 -2 12 -12 14 -22z m-1725 1 c278 -54 499 -268 552 -536 15 -74 16 -99 5
-193 -14 -127 -38 -198 -97 -289 -115 -173 -304 -287 -514 -308 -208 -22 -373
39 -534 195 -249 243 -288 581 -98 867 40 61 159 155 258 205 134 66 281 87
428 59z m2312 -2 c331 -66 580 -385 550 -706 -21 -223 -173 -446 -371 -544
-118 -58 -197 -77 -315 -77 -120 0 -196 20 -314 80 -168 87 -305 256 -353 434
-25 98 -22 256 7 344 45 137 92 206 203 302 173 150 384 209 593 167z"/>
<path d="M3763 7039 c-120 -42 -222 -151 -260 -278 -11 -40 -14 -80 -11 -148
4 -78 10 -103 36 -156 81 -165 222 -245 411 -235 126 7 190 35 272 118 115
117 155 231 130 376 -25 139 -107 245 -238 307 -61 28 -79 32 -173 34 -86 3
-116 -1 -167 -18z m335 -106 c43 -32 72 -82 72 -124 0 -32 -7 -46 -40 -79 -47
-47 -75 -60 -131 -60 -56 0 -95 24 -120 72 -39 76 -15 148 66 200 38 24 115
20 153 -9z m75 -252 c33 -13 67 -50 67 -74 0 -10 -15 -34 -34 -53 -43 -43 -85
-46 -115 -8 -30 38 -27 77 10 113 34 34 37 35 72 22z"/>
<path d="M6074 7039 c-125 -39 -231 -146 -274 -275 -55 -165 13 -373 154 -468
83 -57 165 -79 271 -74 158 8 266 69 338 189 95 161 93 340 -7 487 -38 56
-137 125 -208 147 -72 21 -199 18 -274 -6z m321 -109 c35 -22 65 -73 65 -112
0 -13 -13 -45 -30 -71 -25 -40 -36 -48 -87 -63 -51 -15 -63 -15 -98 -3 -56 20
-88 70 -82 130 7 84 68 138 156 139 27 0 56 -8 76 -20z m98 -279 c36 -33 34
-59 -9 -104 -40 -41 -63 -46 -87 -19 -37 41 -34 100 9 145 28 31 29 30 87 -22z"/>
<path d="M1155 7160 c-42 -81 -34 -320 15 -471 39 -120 82 -188 176 -282 178
-178 506 -346 824 -421 223 -53 617 -95 765 -81 118 10 145 17 145 32 0 8 -17
40 -39 71 -21 31 -46 69 -55 84 -10 18 -30 31 -58 39 -104 28 -581 191 -678
232 -234 98 -394 185 -545 295 -141 103 -215 174 -373 360 -80 94 -150 172
-154 172 -4 0 -14 -13 -23 -30z"/>
<path d="M8888 7093 c-278 -361 -610 -594 -1107 -778 -264 -98 -504 -175 -562
-181 -53 -6 -58 -9 -78 -44 -11 -20 -41 -64 -66 -96 l-46 -59 28 -8 c15 -5
118 -11 228 -12 431 -6 810 74 1146 242 170 85 281 160 387 264 127 125 168
210 198 404 17 108 14 289 -5 338 -18 47 -43 34 -123 -70z"/>
<path d="M4995 6314 c-62 -32 -97 -79 -176 -237 -44 -86 -88 -166 -100 -178
-20 -20 -20 -21 -2 -47 10 -15 90 -171 178 -346 88 -176 166 -321 172 -323 11
-4 111 185 273 517 26 52 59 109 74 126 14 18 26 35 26 39 0 4 -15 28 -34 54
-18 25 -64 106 -101 180 -71 139 -109 192 -156 217 -37 19 -116 18 -154 -2z
m131 -118 c25 -25 34 -43 34 -67 0 -32 -68 -199 -81 -199 -3 0 -11 11 -17 24
-6 13 -33 43 -61 67 -58 50 -65 81 -31 137 22 35 74 72 104 72 10 0 33 -15 52
-34z"/>
<path d="M8789 6197 c-248 -169 -592 -313 -894 -371 -128 -25 -364 -46 -580
-52 -177 -5 -211 -3 -294 15 l-94 20 -70 -41 -69 -42 93 -47 c211 -108 579
-197 874 -213 184 -10 478 28 655 86 104 33 237 106 301 165 110 102 196 248
218 368 23 133 19 185 -16 185 -10 0 -66 -33 -124 -73z"/>
<path d="M1226 6252 c-16 -26 -17 -97 -2 -164 59 -265 276 -476 581 -563 277
-79 685 -91 965 -29 217 49 435 136 514 205 l38 34 -46 37 c-52 40 -73 42
-166 12 -109 -35 -375 -25 -726 26 -389 58 -611 142 -1009 383 -105 64 -138
77 -149 59z"/>
<path d="M3385 5576 c-22 -7 -52 -20 -66 -29 -14 -10 -63 -31 -108 -47 -46
-17 -95 -37 -109 -44 -32 -16 -311 -100 -402 -120 -224 -50 -486 -43 -889 24
-138 24 -145 21 -139 -57 4 -44 12 -62 50 -110 63 -81 147 -146 260 -203 130
-65 217 -84 366 -78 126 5 254 33 403 88 132 49 374 180 568 307 163 107 193
116 394 111 l162 -4 115 -46 c63 -25 169 -67 235 -92 167 -65 157 -60 251
-123 142 -94 258 -234 305 -369 56 -158 -25 -371 -166 -438 -57 -27 -137 -38
-191 -26 -158 36 -266 220 -208 358 31 74 95 122 164 122 35 0 40 -3 40 -23 0
-12 -16 -44 -35 -71 -54 -77 -45 -136 23 -157 104 -31 212 64 212 186 -1 75
-71 170 -152 205 -69 29 -169 25 -249 -12 -218 -100 -251 -420 -63 -627 92
-102 272 -166 405 -142 236 41 409 247 409 484 -1 197 -84 374 -250 530 -185
175 -320 241 -667 328 -115 28 -137 31 -257 27 -120 -3 -134 -5 -165 -27 -19
-14 -36 -21 -38 -15 -13 38 -42 81 -63 91 -31 16 -93 15 -145 -1z"/>
<path d="M6419 5559 c-258 -29 -380 -53 -476 -92 -32 -14 -76 -30 -98 -37 -68
-22 -237 -111 -300 -158 -177 -134 -305 -312 -344 -482 -25 -107 -7 -259 40
-352 72 -141 290 -278 442 -278 56 0 163 27 215 54 57 29 145 127 182 200 31
62 35 80 38 162 5 116 -14 183 -69 256 -71 92 -97 109 -204 135 -92 22 -153 5
-221 -64 -46 -46 -84 -126 -84 -179 0 -55 46 -143 89 -171 53 -35 96 -31 142
16 35 35 39 44 39 88 0 58 -22 93 -70 113 -33 14 -36 20 -18 38 16 16 73 15
106 -2 34 -18 85 -72 105 -111 27 -56 29 -99 6 -169 -26 -80 -74 -138 -142
-172 -43 -22 -61 -25 -116 -22 -78 4 -160 39 -218 92 -87 78 -127 249 -88 382
34 117 149 252 298 349 108 69 157 93 312 150 72 26 156 61 188 77 82 41 164
59 275 61 l97 2 160 -83 c88 -45 221 -116 295 -158 208 -116 323 -169 470
-217 182 -60 250 -71 406 -64 140 6 236 27 327 74 149 75 287 229 287 320 0
67 -12 69 -218 34 -214 -37 -421 -48 -577 -32 -185 20 -305 40 -390 65 -44 14
-118 36 -165 49 -112 33 -271 89 -340 120 -30 14 -73 27 -95 29 -22 3 -151 -8
-286 -23z"/>
<path d="M3845 5322 c-94 -8 -300 -63 -402 -107 -159 -69 -237 -113 -447 -254
-156 -104 -205 -143 -281 -223 -141 -148 -201 -286 -212 -489 -7 -116 9 -180
70 -288 71 -125 196 -223 328 -257 87 -23 185 -8 289 43 130 64 203 153 259
320 69 207 -39 448 -244 544 -50 24 -83 31 -152 36 -85 5 -89 5 -121 -22 -34
-28 -43 -73 -19 -93 6 -5 42 -13 78 -16 86 -9 157 -43 218 -104 75 -75 95
-121 95 -217 0 -67 -4 -89 -27 -137 -40 -82 -127 -160 -204 -181 -76 -22 -97
-21 -178 4 -121 37 -196 136 -227 299 -43 229 103 451 440 673 211 139 491
253 791 323 62 15 269 43 319 44 32 0 27 13 -13 34 -19 11 -35 22 -35 26 0 12
-78 28 -165 35 -44 4 -89 8 -100 9 -11 1 -38 0 -60 -2z"/>
<path d="M6088 5320 c-49 -7 -140 -77 -136 -105 3 -19 13 -21 143 -27 255 -12
332 -29 540 -118 233 -99 395 -195 569 -336 230 -187 326 -351 313 -535 -10
-144 -74 -245 -194 -305 -68 -33 -80 -36 -138 -32 -77 7 -169 52 -221 111 -20
22 -50 69 -68 106 -27 57 -31 77 -31 146 0 92 21 141 80 193 71 63 195 107
275 100 46 -5 48 -4 46 21 -1 32 -47 75 -104 97 -61 24 -166 14 -232 -22 -114
-62 -212 -205 -231 -338 -45 -319 254 -624 563 -575 91 14 215 77 276 140 95
97 142 217 142 364 0 285 -176 546 -501 741 -365 219 -522 294 -697 334 -167
38 -306 52 -394 40z"/>
<path d="M2915 4401 c-47 -20 -60 -49 -60 -131 0 -76 1 -80 35 -116 67 -70
142 -79 196 -25 63 63 60 166 -8 227 -52 48 -114 65 -163 45z"/>
<path d="M7084 4336 c-41 -40 -44 -47 -44 -96 0 -50 3 -56 45 -97 52 -49 89
-56 141 -24 70 43 110 137 90 214 -7 29 -59 47 -136 47 -49 0 -56 -3 -96 -44z"/>
<path d="M3851 4229 c-73 -12 -144 -53 -198 -114 -55 -60 -73 -100 -73 -160 0
-59 16 -89 79 -148 84 -78 147 -94 228 -58 66 31 92 105 58 170 -23 45 -103
70 -160 51 -20 -7 -38 -10 -41 -8 -10 11 45 74 81 95 76 43 196 22 277 -49
116 -102 167 -286 123 -451 -15 -57 -67 -171 -83 -181 -4 -3 -42 28 -83 67
-135 130 -263 181 -459 182 -124 0 -126 0 -194 -35 -149 -77 -223 -219 -214
-416 3 -82 8 -100 43 -170 66 -135 169 -217 349 -278 103 -35 305 -10 418 51
98 54 262 227 299 319 7 16 13 70 14 119 1 79 6 101 39 184 56 139 73 229 60
333 -17 133 -85 277 -173 364 -55 55 -178 119 -255 133 -33 6 -64 10 -70 10
-6 -1 -35 -5 -65 -10z m-66 -776 c198 -64 234 -92 270 -206 30 -93 31 -147 6
-203 -23 -50 -63 -82 -167 -131 -74 -36 -85 -38 -174 -38 -83 1 -103 4 -158
29 -75 35 -123 86 -165 174 -85 182 -13 354 167 398 63 16 118 10 221 -23z"/>
<path d="M6126 4224 c-97 -31 -234 -137 -282 -220 -65 -110 -98 -269 -84 -393
11 -87 16 -107 59 -213 29 -71 30 -80 18 -105 -22 -44 -29 -99 -17 -142 27
-102 188 -282 301 -338 102 -50 264 -94 350 -95 89 0 140 12 239 60 265 129
354 478 180 709 -45 61 -105 106 -177 134 -49 20 -76 23 -178 23 -110 0 -127
-3 -210 -33 -116 -42 -216 -101 -256 -151 -18 -22 -35 -40 -39 -40 -12 0 -74
113 -93 168 -40 119 -13 277 62 364 66 77 191 138 283 138 29 0 46 -7 73 -32
19 -18 37 -45 40 -59 l6 -26 -73 5 c-73 4 -74 4 -111 -30 -32 -30 -37 -42 -37
-79 0 -163 181 -183 317 -36 48 52 69 89 78 139 14 77 -67 187 -174 236 -71
33 -199 40 -275 16z m524 -751 c56 -25 113 -82 141 -140 29 -60 24 -186 -10
-251 -82 -160 -258 -228 -443 -172 -95 29 -140 53 -193 101 -58 54 -79 100
-71 156 8 57 60 157 108 205 43 43 141 96 213 114 71 19 199 12 255 -13z"/>
<path d="M5018 3911 c-20 -17 -39 -43 -42 -57 -17 -65 44 -139 115 -139 46 0
82 24 103 70 32 68 -15 143 -97 152 -38 5 -48 1 -79 -26z"/>
<path d="M4672 3902 c-94 -88 -45 -227 80 -227 43 0 53 4 78 32 16 18 32 47
35 65 22 116 -112 206 -193 130z"/>
<path d="M5390 3917 c-33 -17 -70 -74 -70 -109 0 -62 58 -128 112 -128 66 0
128 62 128 127 0 39 -41 90 -87 109 -40 17 -51 17 -83 1z"/>
<path d="M5388 3463 c-14 -16 -46 -57 -71 -93 -25 -36 -55 -74 -65 -84 -20
-17 -21 -16 -56 51 -38 73 -74 103 -122 103 -35 0 -100 -66 -135 -136 l-25
-50 -89 99 c-84 94 -89 98 -98 76 -25 -65 -25 -87 0 -121 14 -18 38 -60 55
-93 17 -33 45 -80 63 -105 18 -25 72 -110 119 -190 48 -80 91 -149 95 -153 4
-4 47 61 96 145 90 157 154 251 236 348 84 99 115 196 70 220 -30 16 -45 12
-73 -17z"/>
<path d="M5500 3184 c0 -19 -19 -54 -56 -104 -97 -130 -138 -240 -138 -360 1
-102 17 -147 127 -365 41 -82 88 -185 103 -227 l26 -78 33 54 c18 30 53 81 79
114 55 73 117 187 142 262 11 34 18 87 18 140 1 104 -5 117 -142 301 -54 74
-118 168 -141 209 -52 91 -51 90 -51 54z"/>
<path d="M4628 3152 c-54 -91 -151 -236 -195 -292 -87 -112 -98 -140 -97 -255
1 -82 5 -112 26 -165 38 -99 85 -188 137 -260 25 -35 56 -80 68 -100 15 -24
23 -31 26 -20 3 8 17 53 31 100 14 47 48 126 76 175 28 50 69 128 92 175 80
167 63 289 -75 537 l-73 131 -16 -26z"/>
<path d="M4972 2479 c-112 -168 -140 -227 -154 -320 -19 -125 12 -246 99 -394
25 -44 72 -132 104 -195 l58 -115 11 33 c23 62 90 194 137 265 94 147 123 250
104 385 -14 107 -35 157 -136 319 -78 124 -108 163 -124 163 -3 0 -48 -63 -99
-141z"/>
</g>
</svg>
